<?xml version="1.0" encoding="UTF-8" standalone="no"?>
<!-- Generator: Adobe Illustrator 18.0.0, SVG Export Plug-In . SVG Version: 6.00 Build 0)  -->

<svg
   xmlns:dc="http://purl.org/dc/elements/1.1/"
   xmlns:cc="http://creativecommons.org/ns#"
   xmlns:rdf="http://www.w3.org/1999/02/22-rdf-syntax-ns#"
   xmlns:svg="http://www.w3.org/2000/svg"
   xmlns="http://www.w3.org/2000/svg"
   xmlns:sodipodi="http://sodipodi.sourceforge.net/DTD/sodipodi-0.dtd"
   xmlns:inkscape="http://www.inkscape.org/namespaces/inkscape"
   version="1.1"
   x="0px"
   y="0px"
   viewBox="0 0 48 48"
   style="enable-background:new 0 0 48 48;"
   xml:space="preserve"
   id="svg2"
   inkscape:version="0.91 r13725"
   sodipodi:docname="feed.svg"><metadata
     id="metadata42"><rdf:RDF><cc:Work
         rdf:about=""><dc:format>image/svg+xml</dc:format><dc:type
           rdf:resource="http://purl.org/dc/dcmitype/StillImage" /><dc:title></dc:title></cc:Work></rdf:RDF></metadata><defs
     id="defs40" /><sodipodi:namedview
     pagecolor="#ffffff"
     bordercolor="#666666"
     borderopacity="1"
     objecttolerance="10"
     gridtolerance="10"
     guidetolerance="10"
     inkscape:pageopacity="0"
     inkscape:pageshadow="2"
     inkscape:window-width="640"
     inkscape:window-height="480"
     id="namedview38"
     showgrid="false"
     inkscape:zoom="4.9166667"
     inkscape:cx="24"
     inkscape:cy="24"
     inkscape:window-x="0"
     inkscape:window-y="0"
     inkscape:window-maximized="0"
     inkscape:current-layer="svg2" /><g
     id="Layer_522"><g
       id="g5"><circle
         style="fill:#F08421;"
         cx="24"
         cy="23.998"
         r="24"
         id="circle7" /><g
         id="g9"><ellipse
           style="fill:#FFFFFF;"
           cx="12.998"
           cy="34.982"
           rx="4"
           ry="3.982"
           id="ellipse11" /><path
           style="fill:#FFFFFF;"
           d="M23.03,38.992h5.773c0-10.918-8.881-19.799-19.797-19.799v5.75c3.745,0,7.267,1.457,9.914,4.109     C21.57,31.703,23.03,35.234,23.03,38.992z"
           id="path13" /><path
           style="fill:#FFFFFF;"
           d="M33.229,39H39C39,22.457,25.548,9,9.016,9v5.75C22.366,14.75,33.229,25.629,33.229,39z"
           id="path15" /></g><circle
         style="fill:#F08421;"
         cx="24"
         cy="23.998"
         r="24"
         id="circle17" /><g
         id="g19"><ellipse
           style="fill:#FFFFFF;"
           cx="12.998"
           cy="34.982"
           rx="4"
           ry="3.982"
           id="ellipse21" /><path
           style="fill:#FFFFFF;"
           d="M23.03,38.992h5.773c0-10.918-8.881-19.799-19.797-19.799v5.75c3.745,0,7.267,1.457,9.914,4.109     C21.57,31.703,23.03,35.234,23.03,38.992z"
           id="path23" /><path
           style="fill:#FFFFFF;"
           d="M33.229,39H39C39,22.457,25.548,9,9.016,9v5.75C22.366,14.75,33.229,25.629,33.229,39z"
           id="path25" /></g><circle
         style="fill:#F08421;"
         cx="24"
         cy="23.998"
         r="24"
         id="circle27" /><g
         id="g29"><ellipse
           style="fill:#FFFFFF;"
           cx="12.998"
           cy="34.982"
           rx="4"
           ry="3.982"
           id="ellipse31" /><path
           style="fill:#FFFFFF;"
           d="M23.03,38.992h5.773c0-10.918-8.881-19.799-19.797-19.799v5.75c3.745,0,7.267,1.457,9.914,4.109     C21.57,31.703,23.03,35.234,23.03,38.992z"
           id="path33" /><path
           style="fill:#FFFFFF;"
           d="M33.229,39H39C39,22.457,25.548,9,9.016,9v5.75C22.366,14.75,33.229,25.629,33.229,39z"
           id="path35" /></g></g></g><g
     id="Layer_1" /></svg>