<?xml version="1.0" encoding="UTF-8" standalone="no"?>
<!-- Generator: Adobe Illustrator 18.0.0, SVG Export Plug-In . SVG Version: 6.00 Build 0)  -->

<svg
   xmlns:dc="http://purl.org/dc/elements/1.1/"
   xmlns:cc="http://creativecommons.org/ns#"
   xmlns:rdf="http://www.w3.org/1999/02/22-rdf-syntax-ns#"
   xmlns:svg="http://www.w3.org/2000/svg"
   xmlns="http://www.w3.org/2000/svg"
   xmlns:sodipodi="http://sodipodi.sourceforge.net/DTD/sodipodi-0.dtd"
   xmlns:inkscape="http://www.inkscape.org/namespaces/inkscape"
   version="1.1"
   x="0px"
   y="0px"
   viewBox="0 0 48 48"
   style="enable-background:new 0 0 48 48;"
   xml:space="preserve"
   id="svg2"
   inkscape:version="0.91 r13725"
   sodipodi:docname="github.svg"><metadata
     id="metadata193"><rdf:RDF><cc:Work
         rdf:about=""><dc:format>image/svg+xml</dc:format><dc:type
           rdf:resource="http://purl.org/dc/dcmitype/StillImage" /><dc:title></dc:title></cc:Work></rdf:RDF></metadata><defs
     id="defs191" /><sodipodi:namedview
     pagecolor="#ffffff"
     bordercolor="#666666"
     borderopacity="1"
     objecttolerance="10"
     gridtolerance="10"
     guidetolerance="10"
     inkscape:pageopacity="0"
     inkscape:pageshadow="2"
     inkscape:window-width="640"
     inkscape:window-height="480"
     id="namedview189"
     showgrid="false"
     inkscape:zoom="4.9166667"
     inkscape:cx="24"
     inkscape:cy="24"
     inkscape:window-x="0"
     inkscape:window-y="0"
     inkscape:window-maximized="0"
     inkscape:current-layer="svg2" /><g
     id="g4" /><g
     id="g6" /><g
     id="g8" /><g
     id="g10" /><g
     id="g12" /><g
     id="g14" /><g
     id="g16" /><g
     id="g18" /><g
     id="g20" /><g
     id="g22" /><g
     id="g24" /><g
     id="g26" /><g
     id="g28" /><g
     id="g30" /><g
     id="g32" /><g
     id="g34" /><g
     id="g36" /><g
     id="g38" /><g
     id="g40" /><g
     id="g42" /><g
     id="g44" /><g
     id="g46" /><g
     id="g48" /><g
     id="g50" /><g
     id="g52" /><g
     id="g54" /><g
     id="g56" /><g
     id="g58" /><g
     id="g60" /><g
     id="g62" /><g
     id="g64" /><g
     id="g66" /><g
     id="g68" /><g
     id="g70" /><g
     id="g72" /><g
     id="g74" /><g
     id="g76" /><g
     id="g78" /><g
     id="g80" /><g
     id="g82" /><g
     id="g84" /><g
     id="g86" /><g
     id="g88" /><g
     id="g90" /><g
     id="g92" /><g
     id="g94" /><g
     id="g96" /><g
     id="g98" /><g
     id="g100" /><g
     id="g102" /><g
     id="g104" /><g
     id="g106" /><g
     id="g108" /><g
     id="g110" /><g
     id="g112" /><g
     id="g114" /><g
     id="g116" /><g
     id="g118" /><g
     id="g120" /><g
     id="g122" /><g
     id="g124" /><g
     id="g126" /><g
     id="g128" /><g
     id="g130" /><g
     id="g132" /><g
     id="g134" /><g
     id="g136" /><g
     id="g138" /><g
     id="g140" /><g
     id="g142" /><g
     id="g144" /><g
     id="g146" /><g
     id="g148" /><g
     id="g150" /><g
     id="g152" /><g
     id="g154" /><g
     id="g156" /><g
     id="g158" /><g
     id="g160" /><g
     id="g162" /><g
     id="g164" /><g
     id="g166" /><g
     id="g168"><g
       id="g170"><circle
         style="fill:#595959;"
         cx="24"
         cy="24"
         r="24"
         id="circle172" /><path
         id="path9-5_4_"
         style="fill:#FFFFFF;"
         d="M13.365,23.737c-0.047,0,0.514,1.206,0.529,1.206c1.224,2.22,3.582,3.6,7.56,3.981    c-0.568,0.431-1.25,1.25-1.345,2.194c-0.714,0.461-2.15,0.614-3.265,0.262c-1.564-0.494-2.163-3.588-4.505-3.147    c-0.507,0.095-0.406,0.43,0.032,0.714c0.714,0.461,1.386,1.039,1.903,2.269c0.399,0.943,1.235,2.631,3.881,2.631    c1.049,0,1.785-0.127,1.785-0.127s0.02,2.41,0.02,3.347c0,1.081-1.46,1.386-1.46,1.905c0,0.205,0.484,0.225,0.871,0.225    c0.767,0,2.363-0.64,2.363-1.763c0-0.892,0.015-3.892,0.015-4.417c0-1.147,0.615-1.511,0.615-1.511s0.076,6.125-0.147,6.946    c-0.262,0.965-0.735,0.828-0.735,1.259c0,0.641,1.921,0.156,2.558-1.25c0.492-1.094,0.277-7.103,0.277-7.103l0.525-0.011    c0,0,0.03,2.75,0.011,4.008c-0.018,1.302-0.107,2.949,0.667,3.725c0.508,0.51,2.156,1.407,2.156,0.588    c0-0.476-0.903-0.866-0.903-2.153V31.59c0.721,0,0.613,1.947,0.613,1.947l0.052,3.621c0,0-0.159,1.319,1.428,1.87    c0.56,0.197,1.756,0.248,1.813-0.079c0.057-0.329-1.442-0.819-1.456-1.841c-0.009-0.622,0.028-0.986,0.028-3.693    c0-2.708-0.364-3.708-1.632-4.505c3.911-0.401,6.333-1.369,7.512-3.959c0.092,0.002,0.481-1.21,0.43-1.21    c0.264-0.978,0.409-2.135,0.435-3.504c-0.007-3.715-1.785-5.029-2.126-5.645c0.504-2.813-0.085-4.092-0.357-4.531    c-1.008-0.358-3.506,0.922-4.872,1.823c-2.224-0.65-6.928-0.588-8.692,0.168c-3.255-2.329-4.977-1.972-4.977-1.972    s-1.113,1.993-0.294,4.91c-1.071,1.364-1.869,2.329-1.869,4.887C12.813,21.321,12.983,22.611,13.365,23.737L13.365,23.737z" /></g></g><g
     id="g175" /><g
     id="g177" /><g
     id="g179" /><g
     id="g181" /><g
     id="g183" /><g
     id="g185" /><g
     id="g187" /></svg>