<?xml version="1.0" encoding="UTF-8" standalone="no"?>
<!-- Generator: Adobe Illustrator 18.0.0, SVG Export Plug-In . SVG Version: 6.00 Build 0)  -->

<svg
   xmlns:dc="http://purl.org/dc/elements/1.1/"
   xmlns:cc="http://creativecommons.org/ns#"
   xmlns:rdf="http://www.w3.org/1999/02/22-rdf-syntax-ns#"
   xmlns:svg="http://www.w3.org/2000/svg"
   xmlns="http://www.w3.org/2000/svg"
   xmlns:sodipodi="http://sodipodi.sourceforge.net/DTD/sodipodi-0.dtd"
   xmlns:inkscape="http://www.inkscape.org/namespaces/inkscape"
   version="1.1"
   x="0px"
   y="0px"
   viewBox="0 0 48 48"
   style="enable-background:new 0 0 48 48;"
   xml:space="preserve"
   id="svg2"
   inkscape:version="0.91 r13725"
   sodipodi:docname="googleplus.svg"><metadata
     id="metadata36"><rdf:RDF><cc:Work
         rdf:about=""><dc:format>image/svg+xml</dc:format><dc:type
           rdf:resource="http://purl.org/dc/dcmitype/StillImage" /><dc:title></dc:title></cc:Work></rdf:RDF></metadata><defs
     id="defs34" /><sodipodi:namedview
     pagecolor="#ffffff"
     bordercolor="#666666"
     borderopacity="1"
     objecttolerance="10"
     gridtolerance="10"
     guidetolerance="10"
     inkscape:pageopacity="0"
     inkscape:pageshadow="2"
     inkscape:window-width="640"
     inkscape:window-height="480"
     id="namedview32"
     showgrid="false"
     inkscape:zoom="4.9166667"
     inkscape:cx="24"
     inkscape:cy="24"
     inkscape:window-x="0"
     inkscape:window-y="0"
     inkscape:window-maximized="0"
     inkscape:current-layer="svg2" /><g
     id="Layer_552"><g
       id="g5"><circle
         style="fill:#F63D27;"
         cx="24"
         cy="24"
         r="24"
         id="circle7" /><g
         id="g9"><path
           style="fill:#FFFFFF;"
           d="M31.937,29.166h1.289c0.346,0,0.625-0.28,0.625-0.626v-4.532h4.523     c0.344,0,0.625-0.282,0.625-0.628v-1.29c0-0.346-0.281-0.628-0.625-0.628h-4.523V16.93c0-0.344-0.279-0.626-0.625-0.626h-1.289     c-0.346,0-0.627,0.282-0.627,0.626v4.532h-4.523c-0.344,0-0.625,0.282-0.625,0.628v1.29c0,0.346,0.281,0.628,0.625,0.628h4.523     v4.532C31.311,28.886,31.592,29.166,31.937,29.166z"
           id="path11" /><path
           style="fill:#FFFFFF;"
           d="M14.119,37.06c1.144,0.292,2.375,0.44,3.652,0.44c1.148,0,2.242-0.151,3.254-0.444     c3.154-0.916,5.193-3.242,5.193-5.929c0-2.577-0.826-4.119-3.045-5.692c-0.951-0.675-1.817-1.663-1.832-1.969     c0-0.554,0.049-0.818,1.289-1.787c1.603-1.256,2.486-2.91,2.486-4.657c0-1.583-0.482-2.99-1.307-3.978h0.639     c0.133,0,0.262-0.041,0.367-0.117l1.779-1.291c0.221-0.159,0.314-0.442,0.229-0.701C26.74,10.676,26.5,10.5,26.228,10.5h-7.957     c-0.871,0-1.756,0.153-2.623,0.452c-2.9,1.002-4.928,3.477-4.928,6.021c0,3.599,2.783,6.328,6.506,6.414     c-0.072,0.286-0.109,0.567-0.109,0.843c0,0.554,0.141,1.08,0.43,1.587c-0.035,0.002-0.066,0.002-0.104,0.002     c-3.547,0-6.75,1.744-7.965,4.34C9.16,30.833,9,31.516,9,32.189c0,0.656,0.168,1.286,0.496,1.879     C10.262,35.437,11.902,36.5,14.119,37.06z M14.828,16.875c-0.172-1.319,0.103-2.503,0.76-3.252c0.424-0.485,0.978-0.74,1.6-0.74     l0.072,0.002c1.758,0.051,3.439,2.014,3.75,4.375c0.174,1.323-0.119,2.565-0.783,3.325c-0.424,0.485-0.971,0.74-1.619,0.74     c0,0,0,0-0.002,0h-0.027C16.856,21.274,15.137,19.233,14.828,16.875z M18.209,27.814l0.072,0.002     c0.59,0.006,1.164,0.094,1.707,0.26c0.186,0.127,0.365,0.25,0.539,0.368c1.254,0.857,2.082,1.423,2.314,2.331     c0.053,0.227,0.08,0.456,0.08,0.677c0,2.334-1.738,3.518-5.166,3.518c-2.6,0-4.633-1.597-4.633-3.636     C13.123,29.459,15.5,27.814,18.209,27.814z"
           id="path13" /></g><circle
         style="fill:#F63D27;"
         cx="24"
         cy="24"
         r="24"
         id="circle15" /><g
         id="g17"><path
           style="fill:#FFFFFF;"
           d="M31.937,29.166h1.289c0.346,0,0.625-0.28,0.625-0.626v-4.532h4.523     c0.344,0,0.625-0.282,0.625-0.628v-1.29c0-0.346-0.281-0.628-0.625-0.628h-4.523V16.93c0-0.344-0.279-0.626-0.625-0.626h-1.289     c-0.346,0-0.627,0.282-0.627,0.626v4.532h-4.523c-0.344,0-0.625,0.282-0.625,0.628v1.29c0,0.346,0.281,0.628,0.625,0.628h4.523     v4.532C31.311,28.886,31.592,29.166,31.937,29.166z"
           id="path19" /><path
           style="fill:#FFFFFF;"
           d="M14.119,37.06c1.144,0.292,2.375,0.44,3.652,0.44c1.148,0,2.242-0.151,3.254-0.444     c3.154-0.916,5.193-3.242,5.193-5.929c0-2.577-0.826-4.119-3.045-5.692c-0.951-0.675-1.817-1.663-1.832-1.969     c0-0.554,0.049-0.818,1.289-1.787c1.603-1.256,2.486-2.91,2.486-4.657c0-1.583-0.482-2.99-1.307-3.978h0.639     c0.133,0,0.262-0.041,0.367-0.117l1.779-1.291c0.221-0.159,0.314-0.442,0.229-0.701C26.74,10.676,26.5,10.5,26.228,10.5h-7.957     c-0.871,0-1.756,0.153-2.623,0.452c-2.9,1.002-4.928,3.477-4.928,6.021c0,3.599,2.783,6.328,6.506,6.414     c-0.072,0.286-0.109,0.567-0.109,0.843c0,0.554,0.141,1.08,0.43,1.587c-0.035,0.002-0.066,0.002-0.104,0.002     c-3.547,0-6.75,1.744-7.965,4.34C9.16,30.833,9,31.516,9,32.189c0,0.656,0.168,1.286,0.496,1.879     C10.262,35.437,11.902,36.5,14.119,37.06z M14.828,16.875c-0.172-1.319,0.103-2.503,0.76-3.252c0.424-0.485,0.978-0.74,1.6-0.74     l0.072,0.002c1.758,0.051,3.439,2.014,3.75,4.375c0.174,1.323-0.119,2.565-0.783,3.325c-0.424,0.485-0.971,0.74-1.619,0.74     c0,0,0,0-0.002,0h-0.027C16.856,21.274,15.137,19.233,14.828,16.875z M18.209,27.814l0.072,0.002     c0.59,0.006,1.164,0.094,1.707,0.26c0.186,0.127,0.365,0.25,0.539,0.368c1.254,0.857,2.082,1.423,2.314,2.331     c0.053,0.227,0.08,0.456,0.08,0.677c0,2.334-1.738,3.518-5.166,3.518c-2.6,0-4.633-1.597-4.633-3.636     C13.123,29.459,15.5,27.814,18.209,27.814z"
           id="path21" /></g><circle
         style="fill:#F63D27;"
         cx="24"
         cy="24"
         r="24"
         id="circle23" /><g
         id="g25"><path
           style="fill:#FFFFFF;"
           d="M31.937,29.166h1.289c0.346,0,0.625-0.28,0.625-0.626v-4.532h4.523     c0.344,0,0.625-0.282,0.625-0.628v-1.29c0-0.346-0.281-0.628-0.625-0.628h-4.523V16.93c0-0.344-0.279-0.626-0.625-0.626h-1.289     c-0.346,0-0.627,0.282-0.627,0.626v4.532h-4.523c-0.344,0-0.625,0.282-0.625,0.628v1.29c0,0.346,0.281,0.628,0.625,0.628h4.523     v4.532C31.311,28.886,31.592,29.166,31.937,29.166z"
           id="path27" /><path
           style="fill:#FFFFFF;"
           d="M14.119,37.06c1.144,0.292,2.375,0.44,3.652,0.44c1.148,0,2.242-0.151,3.254-0.444     c3.154-0.916,5.193-3.242,5.193-5.929c0-2.577-0.826-4.119-3.045-5.692c-0.951-0.675-1.817-1.663-1.832-1.969     c0-0.554,0.049-0.818,1.289-1.787c1.603-1.256,2.486-2.91,2.486-4.657c0-1.583-0.482-2.99-1.307-3.978h0.639     c0.133,0,0.262-0.041,0.367-0.117l1.779-1.291c0.221-0.159,0.314-0.442,0.229-0.701C26.74,10.676,26.5,10.5,26.228,10.5h-7.957     c-0.871,0-1.756,0.153-2.623,0.452c-2.9,1.002-4.928,3.477-4.928,6.021c0,3.599,2.783,6.328,6.506,6.414     c-0.072,0.286-0.109,0.567-0.109,0.843c0,0.554,0.141,1.08,0.43,1.587c-0.035,0.002-0.066,0.002-0.104,0.002     c-3.547,0-6.75,1.744-7.965,4.34C9.16,30.833,9,31.516,9,32.189c0,0.656,0.168,1.286,0.496,1.879     C10.262,35.437,11.902,36.5,14.119,37.06z M14.828,16.875c-0.172-1.319,0.103-2.503,0.76-3.252c0.424-0.485,0.978-0.74,1.6-0.74     l0.072,0.002c1.758,0.051,3.439,2.014,3.75,4.375c0.174,1.323-0.119,2.565-0.783,3.325c-0.424,0.485-0.971,0.74-1.619,0.74     c0,0,0,0-0.002,0h-0.027C16.856,21.274,15.137,19.233,14.828,16.875z M18.209,27.814l0.072,0.002     c0.59,0.006,1.164,0.094,1.707,0.26c0.186,0.127,0.365,0.25,0.539,0.368c1.254,0.857,2.082,1.423,2.314,2.331     c0.053,0.227,0.08,0.456,0.08,0.677c0,2.334-1.738,3.518-5.166,3.518c-2.6,0-4.633-1.597-4.633-3.636     C13.123,29.459,15.5,27.814,18.209,27.814z"
           id="path29" /></g></g></g><g
     id="Layer_1" /></svg>