<?xml version="1.0" encoding="UTF-8" standalone="no"?>
<!-- Generator: Adobe Illustrator 18.0.0, SVG Export Plug-In . SVG Version: 6.00 Build 0)  -->

<svg
   xmlns:dc="http://purl.org/dc/elements/1.1/"
   xmlns:cc="http://creativecommons.org/ns#"
   xmlns:rdf="http://www.w3.org/1999/02/22-rdf-syntax-ns#"
   xmlns:svg="http://www.w3.org/2000/svg"
   xmlns="http://www.w3.org/2000/svg"
   xmlns:sodipodi="http://sodipodi.sourceforge.net/DTD/sodipodi-0.dtd"
   xmlns:inkscape="http://www.inkscape.org/namespaces/inkscape"
   version="1.1"
   x="0px"
   y="0px"
   viewBox="0 0 48 48"
   style="enable-background:new 0 0 48 48;"
   xml:space="preserve"
   id="svg2"
   inkscape:version="0.91 r13725"
   sodipodi:docname="html5.svg"><metadata
     id="metadata54"><rdf:RDF><cc:Work
         rdf:about=""><dc:format>image/svg+xml</dc:format><dc:type
           rdf:resource="http://purl.org/dc/dcmitype/StillImage" /><dc:title></dc:title></cc:Work></rdf:RDF></metadata><defs
     id="defs52" /><sodipodi:namedview
     pagecolor="#ffffff"
     bordercolor="#666666"
     borderopacity="1"
     objecttolerance="10"
     gridtolerance="10"
     guidetolerance="10"
     inkscape:pageopacity="0"
     inkscape:pageshadow="2"
     inkscape:window-width="640"
     inkscape:window-height="480"
     id="namedview50"
     showgrid="false"
     inkscape:zoom="4.9166667"
     inkscape:cx="24"
     inkscape:cy="24"
     inkscape:window-x="57"
     inkscape:window-y="160"
     inkscape:window-maximized="0"
     inkscape:current-layer="svg2" /><g
     id="Layer_568"><g
       id="g5"><circle
         style="fill:#F16529;"
         cx="24"
         cy="24"
         r="24.001"
         id="circle7" /><g
         id="g9"><polygon
           style="fill:#FFFFFF;enable-background:new    ;"
           points="16.42,11.698 17.701,11.698 17.701,13.057 19.101,13.057      19.101,9 17.701,9 17.701,10.34 16.42,10.34 16.42,9 15.02,9 15.02,13.057 16.42,13.057    "
           id="polygon11" /><polygon
           style="fill:#FFFFFF;enable-background:new    ;"
           points="20.943,13.057 22.344,13.057 22.344,10.347 23.576,10.347      23.576,9 19.711,9 19.711,10.347 20.943,10.347    "
           id="polygon13" /><polygon
           style="fill:#FFFFFF;enable-background:new    ;"
           points="25.56,11.047 26.524,12.489 26.548,12.489 27.511,11.047      27.511,13.057 28.907,13.057 28.907,9 27.446,9 26.548,10.428 25.65,9 24.19,9 24.19,13.057 25.56,13.057    "
           id="polygon15" /><polygon
           style="fill:#FFFFFF;enable-background:new    ;"
           points="32.972,11.717 31.003,11.717 31.003,9 29.603,9 29.603,13.057      32.972,13.057    "
           id="polygon17" /><path
           style="fill:#FFFFFF;enable-background:new    ;"
           d="M13,14.837l2.004,21.747L23.996,39l8.999-2.414L35,14.837H13z      M30.654,21.948H24h-3.89l0.252,2.731H24h6.404l-0.755,8.191L24,34.386l-0.004,0.001l-5.645-1.516l-0.393-4.284h2.766     l0.204,2.222l3.069,0.804L24,31.611l0,0l3.073-0.804l0.321-3.459H24l0,0h-6.158L17.1,19.282H24h6.902L30.654,21.948z"
           id="path19" /></g><circle
         style="fill:#F16529;"
         cx="24"
         cy="24"
         r="24.001"
         id="circle21" /><g
         id="g23"><polygon
           style="fill:#FFFFFF;enable-background:new    ;"
           points="16.42,11.698 17.701,11.698 17.701,13.057 19.101,13.057      19.101,9 17.701,9 17.701,10.34 16.42,10.34 16.42,9 15.02,9 15.02,13.057 16.42,13.057    "
           id="polygon25" /><polygon
           style="fill:#FFFFFF;enable-background:new    ;"
           points="20.943,13.057 22.344,13.057 22.344,10.347 23.576,10.347      23.576,9 19.711,9 19.711,10.347 20.943,10.347    "
           id="polygon27" /><polygon
           style="fill:#FFFFFF;enable-background:new    ;"
           points="25.56,11.047 26.524,12.489 26.548,12.489 27.511,11.047      27.511,13.057 28.907,13.057 28.907,9 27.446,9 26.548,10.428 25.65,9 24.19,9 24.19,13.057 25.56,13.057    "
           id="polygon29" /><polygon
           style="fill:#FFFFFF;enable-background:new    ;"
           points="32.972,11.717 31.003,11.717 31.003,9 29.603,9 29.603,13.057      32.972,13.057    "
           id="polygon31" /><path
           style="fill:#FFFFFF;enable-background:new    ;"
           d="M13,14.837l2.004,21.747L23.996,39l8.999-2.414L35,14.837H13z      M30.654,21.948H24h-3.89l0.252,2.731H24h6.404l-0.755,8.191L24,34.386l-0.004,0.001l-5.645-1.516l-0.393-4.284h2.766     l0.204,2.222l3.069,0.804L24,31.611l0,0l3.073-0.804l0.321-3.459H24l0,0h-6.158L17.1,19.282H24h6.902L30.654,21.948z"
           id="path33" /></g><circle
         style="fill:#F16529;"
         cx="24"
         cy="24"
         r="24.001"
         id="circle35" /><g
         id="g37"><polygon
           style="fill:#FFFFFF;enable-background:new    ;"
           points="16.42,11.698 17.701,11.698 17.701,13.057 19.101,13.057      19.101,9 17.701,9 17.701,10.34 16.42,10.34 16.42,9 15.02,9 15.02,13.057 16.42,13.057    "
           id="polygon39" /><polygon
           style="fill:#FFFFFF;enable-background:new    ;"
           points="20.943,13.057 22.344,13.057 22.344,10.347 23.576,10.347      23.576,9 19.711,9 19.711,10.347 20.943,10.347    "
           id="polygon41" /><polygon
           style="fill:#FFFFFF;enable-background:new    ;"
           points="25.56,11.047 26.524,12.489 26.548,12.489 27.511,11.047      27.511,13.057 28.907,13.057 28.907,9 27.446,9 26.548,10.428 25.65,9 24.19,9 24.19,13.057 25.56,13.057    "
           id="polygon43" /><polygon
           style="fill:#FFFFFF;enable-background:new    ;"
           points="32.972,11.717 31.003,11.717 31.003,9 29.603,9 29.603,13.057      32.972,13.057    "
           id="polygon45" /><path
           style="fill:#FFFFFF;enable-background:new    ;"
           d="M13,14.837l2.004,21.747L23.996,39l8.999-2.414L35,14.837H13z      M30.654,21.948H24h-3.89l0.252,2.731H24h6.404l-0.755,8.191L24,34.386l-0.004,0.001l-5.645-1.516l-0.393-4.284h2.766     l0.204,2.222l3.069,0.804L24,31.611l0,0l3.073-0.804l0.321-3.459H24l0,0h-6.158L17.1,19.282H24h6.902L30.654,21.948z"
           id="path47" /></g></g></g><g
     id="Layer_1" /></svg>