<?xml version="1.0" encoding="UTF-8" standalone="no"?>
<!-- Generator: Adobe Illustrator 18.0.0, SVG Export Plug-In . SVG Version: 6.00 Build 0)  -->

<svg
   xmlns:dc="http://purl.org/dc/elements/1.1/"
   xmlns:cc="http://creativecommons.org/ns#"
   xmlns:rdf="http://www.w3.org/1999/02/22-rdf-syntax-ns#"
   xmlns:svg="http://www.w3.org/2000/svg"
   xmlns="http://www.w3.org/2000/svg"
   xmlns:sodipodi="http://sodipodi.sourceforge.net/DTD/sodipodi-0.dtd"
   xmlns:inkscape="http://www.inkscape.org/namespaces/inkscape"
   version="1.1"
   x="0px"
   y="0px"
   viewBox="0 0 48 48"
   style="enable-background:new 0 0 48 48;"
   xml:space="preserve"
   id="svg2"
   inkscape:version="0.91 r13725"
   sodipodi:docname="insta.svg"><metadata
     id="metadata30"><rdf:RDF><cc:Work
         rdf:about=""><dc:format>image/svg+xml</dc:format><dc:type
           rdf:resource="http://purl.org/dc/dcmitype/StillImage" /><dc:title></dc:title></cc:Work></rdf:RDF></metadata><defs
     id="defs28" /><sodipodi:namedview
     pagecolor="#ffffff"
     bordercolor="#666666"
     borderopacity="1"
     objecttolerance="10"
     gridtolerance="10"
     guidetolerance="10"
     inkscape:pageopacity="0"
     inkscape:pageshadow="2"
     inkscape:window-width="640"
     inkscape:window-height="480"
     id="namedview26"
     showgrid="false"
     inkscape:zoom="4.9166667"
     inkscape:cx="24"
     inkscape:cy="24"
     inkscape:window-x="0"
     inkscape:window-y="0"
     inkscape:window-maximized="0"
     inkscape:current-layer="svg2" /><g
     id="Layer_543"><g
       id="g5"><circle
         style="fill:#517FA4;"
         cx="24"
         cy="24"
         r="24"
         id="circle7" /><g
         id="g9"><path
           style="fill:#FFFFFF;"
           d="M33.201,9H14.797C11.6,9,9,11.6,9,14.797v6.125v12.281C9,36.4,11.6,39,14.797,39h18.404     C36.398,39,39,36.4,39,33.203V20.922v-6.125C39,11.6,36.398,9,33.201,9z M34.865,12.459l0.662-0.004v0.662v4.422l-5.066,0.017     l-0.018-5.084L34.865,12.459z M19.719,20.922c0.961-1.33,2.519-2.201,4.281-2.201s3.32,0.871,4.281,2.201     c0.625,0.867,1,1.93,1,3.078c0,2.91-2.371,5.279-5.281,5.279c-2.912,0-5.281-2.369-5.281-5.279     C18.719,22.852,19.094,21.789,19.719,20.922z M36.078,33.203c0,1.586-1.291,2.875-2.877,2.875H14.797     c-1.586,0-2.875-1.289-2.875-2.875V20.922H16.4c-0.387,0.951-0.603,1.99-0.603,3.078c0,4.523,3.68,8.203,8.203,8.203     c4.523,0,8.203-3.68,8.203-8.203c0-1.088-0.219-2.127-0.605-3.078h4.48V33.203z"
           id="path11" /></g><circle
         style="fill:#517FA4;"
         cx="24"
         cy="24"
         r="24"
         id="circle13" /><g
         id="g15"><path
           style="fill:#FFFFFF;"
           d="M33.201,9H14.797C11.6,9,9,11.6,9,14.797v6.125v12.281C9,36.4,11.6,39,14.797,39h18.404     C36.398,39,39,36.4,39,33.203V20.922v-6.125C39,11.6,36.398,9,33.201,9z M34.865,12.459l0.662-0.004v0.662v4.422l-5.066,0.017     l-0.018-5.084L34.865,12.459z M19.719,20.922c0.961-1.33,2.519-2.201,4.281-2.201s3.32,0.871,4.281,2.201     c0.625,0.867,1,1.93,1,3.078c0,2.91-2.371,5.279-5.281,5.279c-2.912,0-5.281-2.369-5.281-5.279     C18.719,22.852,19.094,21.789,19.719,20.922z M36.078,33.203c0,1.586-1.291,2.875-2.877,2.875H14.797     c-1.586,0-2.875-1.289-2.875-2.875V20.922H16.4c-0.387,0.951-0.603,1.99-0.603,3.078c0,4.523,3.68,8.203,8.203,8.203     c4.523,0,8.203-3.68,8.203-8.203c0-1.088-0.219-2.127-0.605-3.078h4.48V33.203z"
           id="path17" /></g><circle
         style="fill:#517FA4;"
         cx="24"
         cy="24"
         r="24"
         id="circle19" /><g
         id="g21"><path
           style="fill:#FFFFFF;"
           d="M33.201,9H14.797C11.6,9,9,11.6,9,14.797v6.125v12.281C9,36.4,11.6,39,14.797,39h18.404     C36.398,39,39,36.4,39,33.203V20.922v-6.125C39,11.6,36.398,9,33.201,9z M34.865,12.459l0.662-0.004v0.662v4.422l-5.066,0.017     l-0.018-5.084L34.865,12.459z M19.719,20.922c0.961-1.33,2.519-2.201,4.281-2.201s3.32,0.871,4.281,2.201     c0.625,0.867,1,1.93,1,3.078c0,2.91-2.371,5.279-5.281,5.279c-2.912,0-5.281-2.369-5.281-5.279     C18.719,22.852,19.094,21.789,19.719,20.922z M36.078,33.203c0,1.586-1.291,2.875-2.877,2.875H14.797     c-1.586,0-2.875-1.289-2.875-2.875V20.922H16.4c-0.387,0.951-0.603,1.99-0.603,3.078c0,4.523,3.68,8.203,8.203,8.203     c4.523,0,8.203-3.68,8.203-8.203c0-1.088-0.219-2.127-0.605-3.078h4.48V33.203z"
           id="path23" /></g></g></g><g
     id="Layer_1" /></svg>