<?xml version="1.0" encoding="UTF-8" standalone="no"?>
<!-- Generator: Adobe Illustrator 18.0.0, SVG Export Plug-In . SVG Version: 6.00 Build 0)  -->

<svg
   xmlns:dc="http://purl.org/dc/elements/1.1/"
   xmlns:cc="http://creativecommons.org/ns#"
   xmlns:rdf="http://www.w3.org/1999/02/22-rdf-syntax-ns#"
   xmlns:svg="http://www.w3.org/2000/svg"
   xmlns="http://www.w3.org/2000/svg"
   xmlns:sodipodi="http://sodipodi.sourceforge.net/DTD/sodipodi-0.dtd"
   xmlns:inkscape="http://www.inkscape.org/namespaces/inkscape"
   version="1.1"
   x="0px"
   y="0px"
   viewBox="0 0 48 48"
   style="enable-background:new 0 0 48 48;"
   xml:space="preserve"
   id="svg2"
   inkscape:version="0.91 r13725"
   sodipodi:docname="linkedin.svg"><metadata
     id="metadata42"><rdf:RDF><cc:Work
         rdf:about=""><dc:format>image/svg+xml</dc:format><dc:type
           rdf:resource="http://purl.org/dc/dcmitype/StillImage" /><dc:title></dc:title></cc:Work></rdf:RDF></metadata><defs
     id="defs40" /><sodipodi:namedview
     pagecolor="#ffffff"
     bordercolor="#666666"
     borderopacity="1"
     objecttolerance="10"
     gridtolerance="10"
     guidetolerance="10"
     inkscape:pageopacity="0"
     inkscape:pageshadow="2"
     inkscape:window-width="640"
     inkscape:window-height="480"
     id="namedview38"
     showgrid="false"
     inkscape:zoom="4.9166667"
     inkscape:cx="24"
     inkscape:cy="24"
     inkscape:window-x="98"
     inkscape:window-y="13"
     inkscape:window-maximized="0"
     inkscape:current-layer="svg2" /><g
     id="Layer_563"><g
       id="g5"><circle
         style="fill:#0173B2;"
         cx="24"
         cy="24"
         r="24.001"
         id="circle7" /><g
         id="g9"><rect
           x="9"
           y="19"
           style="fill:#FFFFFF;"
           width="7"
           height="20"
           id="rect11" /><circle
           style="fill:#FFFFFF;"
           cx="12.5"
           cy="12.5"
           r="3.5"
           id="circle13" /><path
           style="fill:#FFFFFF;"
           d="M39,28.009C39,22.612,37.836,19,31.545,19c-3.023,0-5.053,1.123-5.883,2.699h-0.086V19H20v20     h5.828v-9.913c0-2.614,0.494-5.145,3.728-5.145c3.186,0,3.443,2.989,3.443,5.314V39h6V28.009z"
           id="path15" /></g><circle
         style="fill:#0173B2;"
         cx="24"
         cy="24"
         r="24.001"
         id="circle17" /><g
         id="g19"><rect
           x="9"
           y="19"
           style="fill:#FFFFFF;"
           width="7"
           height="20"
           id="rect21" /><circle
           style="fill:#FFFFFF;"
           cx="12.5"
           cy="12.5"
           r="3.5"
           id="circle23" /><path
           style="fill:#FFFFFF;"
           d="M39,28.009C39,22.612,37.836,19,31.545,19c-3.023,0-5.053,1.123-5.883,2.699h-0.086V19H20v20     h5.828v-9.913c0-2.614,0.494-5.145,3.728-5.145c3.186,0,3.443,2.989,3.443,5.314V39h6V28.009z"
           id="path25" /></g><circle
         style="fill:#0173B2;"
         cx="24"
         cy="24"
         r="24.001"
         id="circle27" /><g
         id="g29"><rect
           x="9"
           y="19"
           style="fill:#FFFFFF;"
           width="7"
           height="20"
           id="rect31" /><circle
           style="fill:#FFFFFF;"
           cx="12.5"
           cy="12.5"
           r="3.5"
           id="circle33" /><path
           style="fill:#FFFFFF;"
           d="M39,28.009C39,22.612,37.836,19,31.545,19c-3.023,0-5.053,1.123-5.883,2.699h-0.086V19H20v20     h5.828v-9.913c0-2.614,0.494-5.145,3.728-5.145c3.186,0,3.443,2.989,3.443,5.314V39h6V28.009z"
           id="path35" /></g></g></g><g
     id="Layer_1" /></svg>