<?xml version="1.0" encoding="UTF-8" standalone="no"?>
<!-- Generator: Adobe Illustrator 18.0.0, SVG Export Plug-In . SVG Version: 6.00 Build 0)  -->

<svg
   xmlns:dc="http://purl.org/dc/elements/1.1/"
   xmlns:cc="http://creativecommons.org/ns#"
   xmlns:rdf="http://www.w3.org/1999/02/22-rdf-syntax-ns#"
   xmlns:svg="http://www.w3.org/2000/svg"
   xmlns="http://www.w3.org/2000/svg"
   xmlns:sodipodi="http://sodipodi.sourceforge.net/DTD/sodipodi-0.dtd"
   xmlns:inkscape="http://www.inkscape.org/namespaces/inkscape"
   version="1.1"
   x="0px"
   y="0px"
   viewBox="0 0 48 48"
   style="enable-background:new 0 0 48 48;"
   xml:space="preserve"
   id="svg2"
   inkscape:version="0.91 r13725"
   sodipodi:docname="mail.svg"><metadata
     id="metadata54"><rdf:RDF><cc:Work
         rdf:about=""><dc:format>image/svg+xml</dc:format><dc:type
           rdf:resource="http://purl.org/dc/dcmitype/StillImage" /><dc:title></dc:title></cc:Work></rdf:RDF></metadata><defs
     id="defs52" /><sodipodi:namedview
     pagecolor="#ffffff"
     bordercolor="#666666"
     borderopacity="1"
     objecttolerance="10"
     gridtolerance="10"
     guidetolerance="10"
     inkscape:pageopacity="0"
     inkscape:pageshadow="2"
     inkscape:window-width="640"
     inkscape:window-height="480"
     id="namedview50"
     showgrid="false"
     inkscape:zoom="4.9166667"
     inkscape:cx="24"
     inkscape:cy="24"
     inkscape:window-x="0"
     inkscape:window-y="0"
     inkscape:window-maximized="0"
     inkscape:current-layer="svg2" /><g
     id="Layer_512"><g
       id="g5"><circle
         style="fill:#669C41;"
         cx="24"
         cy="23.998"
         r="24"
         id="circle7" /><g
         id="g9"><path
           style="fill:#FFFFFF;"
           d="M37.041,19.099c-0.047-0.038-0.09-0.054-0.133-0.072v-7.505c0-0.219-0.176-0.397-0.387-0.397     h-9.578c-0.025-0.028-0.043-0.056-0.08-0.086l-2.369-1.875c-0.273-0.217-0.719-0.217-0.992,0l-2.367,1.875     c-0.039,0.03-0.057,0.058-0.08,0.086h-9.56c-0.211,0-0.385,0.178-0.385,0.397v7.497c-0.049,0.016-0.098,0.038-0.152,0.08     l-1.463,1.158C9.223,20.472,9,20.938,9,21.291v17.066C9,38.711,9.281,39,9.623,39h28.75C38.719,39,39,38.711,39,38.357V21.291     c0-0.353-0.223-0.819-0.496-1.035L37.041,19.099z M34.846,23.839c0,0.219-0.152,0.482-0.34,0.584l-10.16,5.62     c-0.185,0.102-0.492,0.102-0.678,0l-10.158-5.62c-0.186-0.102-0.338-0.365-0.338-0.584V13.226c0-0.219,0.172-0.397,0.383-0.397     h20.904c0.211,0,0.387,0.178,0.387,0.397V23.839z"
           id="path11" /><rect
           x="15.473"
           y="16.225"
           style="fill:#FFFFFF;"
           width="6"
           height="6.167"
           id="rect13" /><rect
           x="23.209"
           y="16.225"
           style="fill:#FFFFFF;"
           width="10.158"
           height="1.137"
           id="rect15" /><rect
           x="23.209"
           y="18.538"
           style="fill:#FFFFFF;"
           width="10.158"
           height="1.136"
           id="rect17" /><rect
           x="23.209"
           y="20.85"
           style="fill:#FFFFFF;"
           width="4.148"
           height="1.138"
           id="rect19" /></g><circle
         style="fill:#669C41;"
         cx="24"
         cy="23.998"
         r="24"
         id="circle21" /><g
         id="g23"><path
           style="fill:#FFFFFF;"
           d="M37.041,19.099c-0.047-0.038-0.09-0.054-0.133-0.072v-7.505c0-0.219-0.176-0.397-0.387-0.397     h-9.578c-0.025-0.028-0.043-0.056-0.08-0.086l-2.369-1.875c-0.273-0.217-0.719-0.217-0.992,0l-2.367,1.875     c-0.039,0.03-0.057,0.058-0.08,0.086h-9.56c-0.211,0-0.385,0.178-0.385,0.397v7.497c-0.049,0.016-0.098,0.038-0.152,0.08     l-1.463,1.158C9.223,20.472,9,20.938,9,21.291v17.066C9,38.711,9.281,39,9.623,39h28.75C38.719,39,39,38.711,39,38.357V21.291     c0-0.353-0.223-0.819-0.496-1.035L37.041,19.099z M34.846,23.839c0,0.219-0.152,0.482-0.34,0.584l-10.16,5.62     c-0.185,0.102-0.492,0.102-0.678,0l-10.158-5.62c-0.186-0.102-0.338-0.365-0.338-0.584V13.226c0-0.219,0.172-0.397,0.383-0.397     h20.904c0.211,0,0.387,0.178,0.387,0.397V23.839z"
           id="path25" /><rect
           x="15.473"
           y="16.225"
           style="fill:#FFFFFF;"
           width="6"
           height="6.167"
           id="rect27" /><rect
           x="23.209"
           y="16.225"
           style="fill:#FFFFFF;"
           width="10.158"
           height="1.137"
           id="rect29" /><rect
           x="23.209"
           y="18.538"
           style="fill:#FFFFFF;"
           width="10.158"
           height="1.136"
           id="rect31" /><rect
           x="23.209"
           y="20.85"
           style="fill:#FFFFFF;"
           width="4.148"
           height="1.138"
           id="rect33" /></g><circle
         style="fill:#669C41;"
         cx="24"
         cy="23.998"
         r="24"
         id="circle35" /><g
         id="g37"><path
           style="fill:#FFFFFF;"
           d="M37.041,19.099c-0.047-0.038-0.09-0.054-0.133-0.072v-7.505c0-0.219-0.176-0.397-0.387-0.397     h-9.578c-0.025-0.028-0.043-0.056-0.08-0.086l-2.369-1.875c-0.273-0.217-0.719-0.217-0.992,0l-2.367,1.875     c-0.039,0.03-0.057,0.058-0.08,0.086h-9.56c-0.211,0-0.385,0.178-0.385,0.397v7.497c-0.049,0.016-0.098,0.038-0.152,0.08     l-1.463,1.158C9.223,20.472,9,20.938,9,21.291v17.066C9,38.711,9.281,39,9.623,39h28.75C38.719,39,39,38.711,39,38.357V21.291     c0-0.353-0.223-0.819-0.496-1.035L37.041,19.099z M34.846,23.839c0,0.219-0.152,0.482-0.34,0.584l-10.16,5.62     c-0.185,0.102-0.492,0.102-0.678,0l-10.158-5.62c-0.186-0.102-0.338-0.365-0.338-0.584V13.226c0-0.219,0.172-0.397,0.383-0.397     h20.904c0.211,0,0.387,0.178,0.387,0.397V23.839z"
           id="path39" /><rect
           x="15.473"
           y="16.225"
           style="fill:#FFFFFF;"
           width="6"
           height="6.167"
           id="rect41" /><rect
           x="23.209"
           y="16.225"
           style="fill:#FFFFFF;"
           width="10.158"
           height="1.137"
           id="rect43" /><rect
           x="23.209"
           y="18.538"
           style="fill:#FFFFFF;"
           width="10.158"
           height="1.136"
           id="rect45" /><rect
           x="23.209"
           y="20.85"
           style="fill:#FFFFFF;"
           width="4.148"
           height="1.138"
           id="rect47" /></g></g></g><g
     id="Layer_1" /></svg>