<?xml version="1.0" encoding="UTF-8" standalone="no"?>
<!-- Generator: Adobe Illustrator 18.0.0, SVG Export Plug-In . SVG Version: 6.00 Build 0)  -->

<svg
   xmlns:dc="http://purl.org/dc/elements/1.1/"
   xmlns:cc="http://creativecommons.org/ns#"
   xmlns:rdf="http://www.w3.org/1999/02/22-rdf-syntax-ns#"
   xmlns:svg="http://www.w3.org/2000/svg"
   xmlns="http://www.w3.org/2000/svg"
   xmlns:sodipodi="http://sodipodi.sourceforge.net/DTD/sodipodi-0.dtd"
   xmlns:inkscape="http://www.inkscape.org/namespaces/inkscape"
   version="1.1"
   x="0px"
   y="0px"
   viewBox="0 0 48 48"
   style="enable-background:new 0 0 48 48;"
   xml:space="preserve"
   id="svg2"
   inkscape:version="0.91 r13725"
   sodipodi:docname="steam.svg"><metadata
     id="metadata193"><rdf:RDF><cc:Work
         rdf:about=""><dc:format>image/svg+xml</dc:format><dc:type
           rdf:resource="http://purl.org/dc/dcmitype/StillImage" /><dc:title></dc:title></cc:Work></rdf:RDF></metadata><defs
     id="defs191" /><sodipodi:namedview
     pagecolor="#ffffff"
     bordercolor="#666666"
     borderopacity="1"
     objecttolerance="10"
     gridtolerance="10"
     guidetolerance="10"
     inkscape:pageopacity="0"
     inkscape:pageshadow="2"
     inkscape:window-width="640"
     inkscape:window-height="480"
     id="namedview189"
     showgrid="false"
     inkscape:zoom="4.9166667"
     inkscape:cx="24"
     inkscape:cy="24"
     inkscape:window-x="0"
     inkscape:window-y="0"
     inkscape:window-maximized="0"
     inkscape:current-layer="svg2" /><g
     id="g4" /><g
     id="g6" /><g
     id="g8" /><g
     id="g10" /><g
     id="g12" /><g
     id="g14" /><g
     id="g16" /><g
     id="g18" /><g
     id="g20" /><g
     id="g22" /><g
     id="g24" /><g
     id="g26" /><g
     id="g28" /><g
     id="g30" /><g
     id="g32" /><g
     id="g34" /><g
     id="g36" /><g
     id="g38" /><g
     id="g40" /><g
     id="g42" /><g
     id="g44" /><g
     id="g46" /><g
     id="g48" /><g
     id="g50" /><g
     id="g52" /><g
     id="g54" /><g
     id="g56" /><g
     id="g58" /><g
     id="g60" /><g
     id="g62" /><g
     id="g64" /><g
     id="g66" /><g
     id="g68" /><g
     id="g70" /><g
     id="g72" /><g
     id="g74" /><g
     id="g76" /><g
     id="g78" /><g
     id="g80" /><g
     id="g82" /><g
     id="g84" /><g
     id="g86" /><g
     id="g88" /><g
     id="g90" /><g
     id="g92" /><g
     id="g94" /><g
     id="g96" /><g
     id="g98" /><g
     id="g100" /><g
     id="g102" /><g
     id="g104" /><g
     id="g106" /><g
     id="g108" /><g
     id="g110" /><g
     id="g112" /><g
     id="g114" /><g
     id="g116" /><g
     id="g118" /><g
     id="g120" /><g
     id="g122" /><g
     id="g124" /><g
     id="g126" /><g
     id="g128" /><g
     id="g130" /><g
     id="g132" /><g
     id="g134" /><g
     id="g136" /><g
     id="g138" /><g
     id="g140" /><g
     id="g142" /><g
     id="g144" /><g
     id="g146" /><g
     id="g148" /><g
     id="g150" /><g
     id="g152" /><g
     id="g154" /><g
     id="g156" /><g
     id="g158" /><g
     id="g160"><g
       id="g162"><circle
         style="fill:#303030;"
         cx="24"
         cy="24"
         r="24"
         id="circle164" /><path
         id="Steam_4_"
         style="fill:#FFFFFF;"
         d="M36.755,20.108c0,1.556-1.243,2.818-2.776,2.818c-1.535,0-2.777-1.262-2.777-2.818    c0-1.556,1.242-2.818,2.777-2.818C35.512,17.29,36.755,18.552,36.755,20.108z M35.637,24.869l-3.362,2.919    c0.036,0.233,0.061,0.47,0.061,0.713c0,2.485-1.985,4.499-4.432,4.499c-2.111,0-3.874-1.499-4.321-3.505l-8.31-2.862    c-0.657,0.506-1.473,0.81-2.361,0.81c-2.16,0-3.911-1.778-3.911-3.97c0-2.192,1.751-3.97,3.911-3.97    c1.857,0,3.409,1.314,3.809,3.075l8.028,2.765c0.782-0.805,1.86-1.309,3.055-1.336l1.202-3.71    c-0.003-0.074-0.011-0.146-0.011-0.221c0-2.803,2.24-5.076,5.002-5.076C36.76,15,39,17.273,39,20.076    C39,22.298,37.593,24.18,35.637,24.869L35.637,24.869z M15.371,22.114c-0.467-0.854-1.364-1.432-2.395-1.432    c-1.513,0-2.739,1.245-2.739,2.78c0,1.535,1.226,2.779,2.739,2.779c0.28,0,0.549-0.043,0.803-0.122l-1.301-0.448    c-1.049-0.57-1.443-1.895-0.882-2.959c0.562-1.064,1.867-1.464,2.915-0.894L15.371,22.114z M30.096,20.089    c0,2.178,1.739,3.943,3.885,3.943c2.146,0,3.886-1.765,3.886-3.943c0-2.179-1.741-3.944-3.886-3.944    C31.835,16.145,30.096,17.91,30.096,20.089z M30.173,28.887c0-1.658-1.324-3.002-2.958-3.002c-0.229,0-0.45,0.029-0.664,0.079    l1.653,0.569c1.048,0.57,1.442,1.895,0.88,2.958c-0.562,1.065-1.867,1.465-2.915,0.895l-1.781-0.614    c0.372,1.226,1.497,2.117,2.827,2.117C28.848,31.889,30.173,30.544,30.173,28.887L30.173,28.887z" /></g></g><g
     id="g167" /><g
     id="g169" /><g
     id="g171" /><g
     id="g173" /><g
     id="g175" /><g
     id="g177" /><g
     id="g179" /><g
     id="g181" /><g
     id="g183" /><g
     id="g185" /><g
     id="g187" /></svg>