<?xml version="1.0" encoding="UTF-8" standalone="no"?>
<!-- Generator: Adobe Illustrator 18.0.0, SVG Export Plug-In . SVG Version: 6.00 Build 0)  -->

<svg
   xmlns:dc="http://purl.org/dc/elements/1.1/"
   xmlns:cc="http://creativecommons.org/ns#"
   xmlns:rdf="http://www.w3.org/1999/02/22-rdf-syntax-ns#"
   xmlns:svg="http://www.w3.org/2000/svg"
   xmlns="http://www.w3.org/2000/svg"
   xmlns:sodipodi="http://sodipodi.sourceforge.net/DTD/sodipodi-0.dtd"
   xmlns:inkscape="http://www.inkscape.org/namespaces/inkscape"
   version="1.1"
   x="0px"
   y="0px"
   viewBox="0 0 48 48"
   style="enable-background:new 0 0 48 48;"
   xml:space="preserve"
   id="svg2"
   inkscape:version="0.91 r13725"
   sodipodi:docname="twitter2.svg"><metadata
     id="metadata30"><rdf:RDF><cc:Work
         rdf:about=""><dc:format>image/svg+xml</dc:format><dc:type
           rdf:resource="http://purl.org/dc/dcmitype/StillImage" /><dc:title></dc:title></cc:Work></rdf:RDF></metadata><defs
     id="defs28" /><sodipodi:namedview
     pagecolor="#ffffff"
     bordercolor="#666666"
     borderopacity="1"
     objecttolerance="10"
     gridtolerance="10"
     guidetolerance="10"
     inkscape:pageopacity="0"
     inkscape:pageshadow="2"
     inkscape:window-width="640"
     inkscape:window-height="480"
     id="namedview26"
     showgrid="false"
     inkscape:zoom="4.9166667"
     inkscape:cx="24"
     inkscape:cy="24"
     inkscape:window-x="0"
     inkscape:window-y="0"
     inkscape:window-maximized="0"
     inkscape:current-layer="svg2" /><g
     id="Layer_574"><g
       id="g5"><circle
         style="fill:#2DAAE1;"
         cx="24"
         cy="24"
         r="24.001"
         id="circle7" /><g
         id="g9"><path
           style="fill:#FFFFFF;"
           d="M38.173,12.442c-1.189,0.695-2.508,1.2-3.91,1.472C33.142,12.736,31.542,12,29.771,12     c-3.398,0-6.154,2.713-6.154,6.059c0,0.475,0.055,0.936,0.158,1.38c-5.115-0.253-9.65-2.665-12.686-6.33     c-0.529,0.894-0.834,1.935-0.834,3.046c0,2.101,1.089,3.956,2.739,5.042c-1.008-0.032-1.958-0.304-2.788-0.757     c0,0.025,0,0.051,0,0.076c0,2.935,2.122,5.384,4.938,5.942c-0.517,0.138-1.06,0.212-1.623,0.212     c-0.396,0-0.781-0.038-1.158-0.109c0.785,2.406,3.057,4.159,5.75,4.208c-2.107,1.625-4.76,2.594-7.645,2.594     c-0.498,0-0.986-0.029-1.469-0.085C11.724,34.997,14.961,36,18.435,36c11.322,0,17.512-9.231,17.512-17.238     c0-0.262-0.004-0.525-0.016-0.784c1.201-0.854,2.246-1.921,3.07-3.137c-1.103,0.483-2.289,0.807-3.535,0.954     C36.738,15.045,37.712,13.858,38.173,12.442z"
           id="path11" /></g><circle
         style="fill:#2DAAE1;"
         cx="24"
         cy="24"
         r="24.001"
         id="circle13" /><g
         id="g15"><path
           style="fill:#FFFFFF;"
           d="M38.173,12.442c-1.189,0.695-2.508,1.2-3.91,1.472C33.142,12.736,31.542,12,29.771,12     c-3.398,0-6.154,2.713-6.154,6.059c0,0.475,0.055,0.936,0.158,1.38c-5.115-0.253-9.65-2.665-12.686-6.33     c-0.529,0.894-0.834,1.935-0.834,3.046c0,2.101,1.089,3.956,2.739,5.042c-1.008-0.032-1.958-0.304-2.788-0.757     c0,0.025,0,0.051,0,0.076c0,2.935,2.122,5.384,4.938,5.942c-0.517,0.138-1.06,0.212-1.623,0.212     c-0.396,0-0.781-0.038-1.158-0.109c0.785,2.406,3.057,4.159,5.75,4.208c-2.107,1.625-4.76,2.594-7.645,2.594     c-0.498,0-0.986-0.029-1.469-0.085C11.724,34.997,14.961,36,18.435,36c11.322,0,17.512-9.231,17.512-17.238     c0-0.262-0.004-0.525-0.016-0.784c1.201-0.854,2.246-1.921,3.07-3.137c-1.103,0.483-2.289,0.807-3.535,0.954     C36.738,15.045,37.712,13.858,38.173,12.442z"
           id="path17" /></g><circle
         style="fill:#2DAAE1;"
         cx="24"
         cy="24"
         r="24.001"
         id="circle19" /><g
         id="g21"><path
           style="fill:#FFFFFF;"
           d="M38.173,12.442c-1.189,0.695-2.508,1.2-3.91,1.472C33.142,12.736,31.542,12,29.771,12     c-3.398,0-6.154,2.713-6.154,6.059c0,0.475,0.055,0.936,0.158,1.38c-5.115-0.253-9.65-2.665-12.686-6.33     c-0.529,0.894-0.834,1.935-0.834,3.046c0,2.101,1.089,3.956,2.739,5.042c-1.008-0.032-1.958-0.304-2.788-0.757     c0,0.025,0,0.051,0,0.076c0,2.935,2.122,5.384,4.938,5.942c-0.517,0.138-1.06,0.212-1.623,0.212     c-0.396,0-0.781-0.038-1.158-0.109c0.785,2.406,3.057,4.159,5.75,4.208c-2.107,1.625-4.76,2.594-7.645,2.594     c-0.498,0-0.986-0.029-1.469-0.085C11.724,34.997,14.961,36,18.435,36c11.322,0,17.512-9.231,17.512-17.238     c0-0.262-0.004-0.525-0.016-0.784c1.201-0.854,2.246-1.921,3.07-3.137c-1.103,0.483-2.289,0.807-3.535,0.954     C36.738,15.045,37.712,13.858,38.173,12.442z"
           id="path23" /></g></g></g><g
     id="Layer_1" /></svg>