<?xml version="1.0" encoding="UTF-8" standalone="no"?>
<!-- Generator: Adobe Illustrator 18.0.0, SVG Export Plug-In . SVG Version: 6.00 Build 0)  -->

<svg
   xmlns:dc="http://purl.org/dc/elements/1.1/"
   xmlns:cc="http://creativecommons.org/ns#"
   xmlns:rdf="http://www.w3.org/1999/02/22-rdf-syntax-ns#"
   xmlns:svg="http://www.w3.org/2000/svg"
   xmlns="http://www.w3.org/2000/svg"
   xmlns:sodipodi="http://sodipodi.sourceforge.net/DTD/sodipodi-0.dtd"
   xmlns:inkscape="http://www.inkscape.org/namespaces/inkscape"
   version="1.1"
   x="0px"
   y="0px"
   viewBox="0 0 48 48"
   style="enable-background:new 0 0 48 48;"
   xml:space="preserve"
   id="svg2"
   inkscape:version="0.91 r13725"
   sodipodi:docname="vimeo.svg"><metadata
     id="metadata30"><rdf:RDF><cc:Work
         rdf:about=""><dc:format>image/svg+xml</dc:format><dc:type
           rdf:resource="http://purl.org/dc/dcmitype/StillImage" /><dc:title></dc:title></cc:Work></rdf:RDF></metadata><defs
     id="defs28" /><sodipodi:namedview
     pagecolor="#ffffff"
     bordercolor="#666666"
     borderopacity="1"
     objecttolerance="10"
     gridtolerance="10"
     guidetolerance="10"
     inkscape:pageopacity="0"
     inkscape:pageshadow="2"
     inkscape:window-width="640"
     inkscape:window-height="480"
     id="namedview26"
     showgrid="false"
     inkscape:zoom="4.9166667"
     inkscape:cx="24"
     inkscape:cy="24"
     inkscape:window-x="22"
     inkscape:window-y="22"
     inkscape:window-maximized="0"
     inkscape:current-layer="svg2" /><g
     id="Layer_567"><g
       id="g5"><circle
         style="fill:#41B2DC;"
         cx="24"
         cy="24"
         r="24.001"
         id="circle7" /><g
         id="g9"><path
           style="fill:#FFFFFF;"
           d="M25.524,27.453c-0.836,0-1.48-2.175-2.437-5.977c-0.99-3.932-0.984-11.013-5.102-10.211     c-3.883,0.758-8.984,6.809-8.984,6.809l1.217,1.588c0,0,2.514-1.967,3.352-0.985c0.838,0.985,4.035,12.86,5.102,15.051     c0.933,1.923,3.502,4.464,6.32,2.648c2.818-1.815,12.184-9.757,13.859-19.136c1.676-9.377-11.271-7.413-12.641,0.757     c3.426-2.045,5.256,0.831,3.502,4.085C27.961,25.334,26.362,27.453,25.524,27.453z"
           id="path11" /></g><circle
         style="fill:#41B2DC;"
         cx="24"
         cy="24"
         r="24.001"
         id="circle13" /><g
         id="g15"><path
           style="fill:#FFFFFF;"
           d="M25.524,27.453c-0.836,0-1.48-2.175-2.437-5.977c-0.99-3.932-0.984-11.013-5.102-10.211     c-3.883,0.758-8.984,6.809-8.984,6.809l1.217,1.588c0,0,2.514-1.967,3.352-0.985c0.838,0.985,4.035,12.86,5.102,15.051     c0.933,1.923,3.502,4.464,6.32,2.648c2.818-1.815,12.184-9.757,13.859-19.136c1.676-9.377-11.271-7.413-12.641,0.757     c3.426-2.045,5.256,0.831,3.502,4.085C27.961,25.334,26.362,27.453,25.524,27.453z"
           id="path17" /></g><circle
         style="fill:#41B2DC;"
         cx="24"
         cy="24"
         r="24.001"
         id="circle19" /><g
         id="g21"><path
           style="fill:#FFFFFF;"
           d="M25.524,27.453c-0.836,0-1.48-2.175-2.437-5.977c-0.99-3.932-0.984-11.013-5.102-10.211     c-3.883,0.758-8.984,6.809-8.984,6.809l1.217,1.588c0,0,2.514-1.967,3.352-0.985c0.838,0.985,4.035,12.86,5.102,15.051     c0.933,1.923,3.502,4.464,6.32,2.648c2.818-1.815,12.184-9.757,13.859-19.136c1.676-9.377-11.271-7.413-12.641,0.757     c3.426-2.045,5.256,0.831,3.502,4.085C27.961,25.334,26.362,27.453,25.524,27.453z"
           id="path23" /></g></g></g><g
     id="Layer_1" /></svg>