<?xml version="1.0" encoding="UTF-8" standalone="no"?>
<!-- Generator: Adobe Illustrator 18.0.0, SVG Export Plug-In . SVG Version: 6.00 Build 0)  -->

<svg
   xmlns:dc="http://purl.org/dc/elements/1.1/"
   xmlns:cc="http://creativecommons.org/ns#"
   xmlns:rdf="http://www.w3.org/1999/02/22-rdf-syntax-ns#"
   xmlns:svg="http://www.w3.org/2000/svg"
   xmlns="http://www.w3.org/2000/svg"
   xmlns:sodipodi="http://sodipodi.sourceforge.net/DTD/sodipodi-0.dtd"
   xmlns:inkscape="http://www.inkscape.org/namespaces/inkscape"
   version="1.1"
   x="0px"
   y="0px"
   viewBox="0 0 48 48"
   style="enable-background:new 0 0 48 48;"
   xml:space="preserve"
   id="svg2"
   inkscape:version="0.91 r13725"
   sodipodi:docname="youtube2.svg"><metadata
     id="metadata39"><rdf:RDF><cc:Work
         rdf:about=""><dc:format>image/svg+xml</dc:format><dc:type
           rdf:resource="http://purl.org/dc/dcmitype/StillImage" /><dc:title></dc:title></cc:Work></rdf:RDF></metadata><defs
     id="defs37" /><sodipodi:namedview
     pagecolor="#ffffff"
     bordercolor="#666666"
     borderopacity="1"
     objecttolerance="10"
     gridtolerance="10"
     guidetolerance="10"
     inkscape:pageopacity="0"
     inkscape:pageshadow="2"
     inkscape:window-width="640"
     inkscape:window-height="480"
     id="namedview35"
     showgrid="false"
     inkscape:zoom="4.9166667"
     inkscape:cx="24"
     inkscape:cy="24"
     inkscape:window-x="0"
     inkscape:window-y="0"
     inkscape:window-maximized="0"
     inkscape:current-layer="svg2" /><g
     id="Layer_545"><g
       id="g5"><circle
         style="fill:#FE3432;"
         cx="24"
         cy="24"
         r="24"
         id="circle7" /><g
         id="g9"><g
           id="Lozenge_9_"><g
             id="g12"><path
               style="fill:#FFFFFF;"
               d="M38.699,17.745c0,0-0.293-2.157-1.191-3.106c-1.141-1.244-2.42-1.252-3.004-1.324       C30.303,13,24.008,13,24.008,13h-0.014c0,0-6.299,0-10.496,0.316c-0.586,0.071-1.863,0.079-3.006,1.324       c-0.898,0.949-1.191,3.106-1.191,3.106S9,20.276,9,22.808v2.372c0,2.533,0.301,5.065,0.301,5.065s0.293,2.155,1.191,3.104       c1.143,1.246,2.643,1.206,3.309,1.336C16.201,34.925,24,35,24,35s6.303-0.012,10.504-0.326       c0.584-0.073,1.863-0.079,3.004-1.326c0.898-0.949,1.191-3.104,1.191-3.104S39,27.713,39,25.18v-2.372       C39,20.276,38.699,17.745,38.699,17.745z M20.904,28.058l-0.002-8.789l8.105,4.411L20.904,28.058z"
               id="path14" /></g></g></g><circle
         style="fill:#FE3432;"
         cx="24"
         cy="24"
         r="24"
         id="circle16" /><g
         id="g18"><g
           id="Lozenge_11_"><g
             id="g21"><path
               style="fill:#FFFFFF;"
               d="M38.699,17.745c0,0-0.293-2.157-1.191-3.106c-1.141-1.244-2.42-1.252-3.004-1.324       C30.303,13,24.008,13,24.008,13h-0.014c0,0-6.299,0-10.496,0.316c-0.586,0.071-1.863,0.079-3.006,1.324       c-0.898,0.949-1.191,3.106-1.191,3.106S9,20.276,9,22.808v2.372c0,2.533,0.301,5.065,0.301,5.065s0.293,2.155,1.191,3.104       c1.143,1.246,2.643,1.206,3.309,1.336C16.201,34.925,24,35,24,35s6.303-0.012,10.504-0.326       c0.584-0.073,1.863-0.079,3.004-1.326c0.898-0.949,1.191-3.104,1.191-3.104S39,27.713,39,25.18v-2.372       C39,20.276,38.699,17.745,38.699,17.745z M20.904,28.058l-0.002-8.789l8.105,4.411L20.904,28.058z"
               id="path23" /></g></g></g><circle
         style="fill:#FE3432;"
         cx="24"
         cy="24"
         r="24"
         id="circle25" /><g
         id="g27"><g
           id="Lozenge_2_"><g
             id="g30"><path
               style="fill:#FFFFFF;"
               d="M38.699,17.745c0,0-0.293-2.157-1.191-3.106c-1.141-1.244-2.42-1.252-3.004-1.324       C30.303,13,24.008,13,24.008,13h-0.014c0,0-6.299,0-10.496,0.316c-0.586,0.071-1.863,0.079-3.006,1.324       c-0.898,0.949-1.191,3.106-1.191,3.106S9,20.276,9,22.808v2.372c0,2.533,0.301,5.065,0.301,5.065s0.293,2.155,1.191,3.104       c1.143,1.246,2.643,1.206,3.309,1.336C16.201,34.925,24,35,24,35s6.303-0.012,10.504-0.326       c0.584-0.073,1.863-0.079,3.004-1.326c0.898-0.949,1.191-3.104,1.191-3.104S39,27.713,39,25.18v-2.372       C39,20.276,38.699,17.745,38.699,17.745z M20.904,28.058l-0.002-8.789l8.105,4.411L20.904,28.058z"
               id="path32" /></g></g></g></g></g><g
     id="Layer_1" /></svg>