<?xml version="1.0" encoding="UTF-8" standalone="no"?>
<!-- Created with Inkscape (http://www.inkscape.org/) -->

<svg
   xmlns:dc="http://purl.org/dc/elements/1.1/"
   xmlns:cc="http://creativecommons.org/ns#"
   xmlns:rdf="http://www.w3.org/1999/02/22-rdf-syntax-ns#"
   xmlns:svg="http://www.w3.org/2000/svg"
   xmlns="http://www.w3.org/2000/svg"
   xmlns:sodipodi="http://sodipodi.sourceforge.net/DTD/sodipodi-0.dtd"
   xmlns:inkscape="http://www.inkscape.org/namespaces/inkscape"
   id="svg2"
   version="1.1"
   inkscape:version="0.91 r13725"
   width="1488.3"
   height="1052.4"
   viewBox="0 0 1488.3 1052.4"
   sodipodi:docname="logo.svg">
  <metadata
     id="metadata8">
    <rdf:RDF>
      <cc:Work
         rdf:about="">
        <dc:format>image/svg+xml</dc:format>
        <dc:type
           rdf:resource="http://purl.org/dc/dcmitype/StillImage" />
        <dc:title></dc:title>
      </cc:Work>
    </rdf:RDF>
  </metadata>
  <defs
     id="defs6" />
  <sodipodi:namedview
     pagecolor="#ffffff"
     bordercolor="#666666"
     borderopacity="1"
     objecttolerance="10"
     gridtolerance="10"
     guidetolerance="10"
     inkscape:pageopacity="0"
     inkscape:pageshadow="2"
     inkscape:window-width="1680"
     inkscape:window-height="987"
     id="namedview4"
     showgrid="false"
     inkscape:zoom="0.61954392"
     inkscape:cx="727.87959"
     inkscape:cy="571.5548"
     inkscape:window-x="-4"
     inkscape:window-y="-4"
     inkscape:window-maximized="1"
     inkscape:current-layer="svg2" />
  <g
     id="g3343"
     transform="matrix(1.1138199,0,0,1.1138199,-64.081964,36.061737)">
    <path
       sodipodi:nodetypes="cssssssscccccccccccssssssscccscc"
       inkscape:connector-curvature="0"
       id="path3342"
       d="m 418.95,784.29987 c -19.97088,-0.96189 -37.76388,-3.10692 -55.77522,-6.72399 C 283.35637,761.54661 211.5007,718.0584 159.1208,654.07914 98.593314,580.14807 70.990443,485.69985 81.767241,389.4 91.429008,303.0639 132.70809,223.66917 198.41659,165.04073 237.60787,130.07229 284.75667,103.95782 334.8,89.501583 c 27.11727,-7.833489 55.22136,-12.410418 83.4,-13.582221 4.37103,-0.18177 107.79651,-0.362337 272.175,-0.475185 l 265.125,-0.18201 0,48.018923 0,48.01891 -110.85,0 -110.85,0 0,303.15 0,303.15 -40.05,0 -40.05,0 0,-303.15 0,-303.15 -111.225,-0.0205 c -127.57815,-0.0235 -113.54097,-0.077 -126.375,0.48177 -13.00791,0.56635 -17.76219,1.08215 -29.1,3.15713 -79.65285,14.57759 -148.65355,66.56527 -185.12709,139.4816 -26.63496,53.24748 -34.05932,113.90067 -21.07799,172.19655 17.57128,78.90828 72.02748,145.94766 145.90508,179.6193 31.41018,14.31603 65.90277,22.30815 99.675,23.09529 l 7.725,0.18003 0,47.50443 0,47.5044 -6.675,-0.0567 c -3.67125,-0.0312 -7.485,-0.0957 -8.475,-0.1434 z"
       style="fill:#000000" />
    <path
       sodipodi:nodetypes="scssscccsssscssscsssscssssscsscssssccssssscs"
       inkscape:connector-curvature="0"
       id="path3342-8"
       d="m 1233.8454,782.68709 -42.4956,-21.1731 3.8497,-8.0039 c 55.0847,-114.5264 77.0998,-241.3123 65.6787,-378.2461 -5.3609,-64.2748 -17.8848,-129.6348 -36.8474,-192.3 -8.9902,-29.71 -20.0898,-60.5167 -29.8866,-82.95 -1.5853,-3.630003 -2.9095,-6.721603 -2.9428,-6.870203 -0.05,-0.2237 84.7352,-41.226801 85.3311,-41.266901 0.2241,-0.015 4.0646,8.4297 7.1568,15.7371 14.554,34.393504 29.0335,77.174704 40.0346,118.286404 27.8646,104.1318 39.1452,208.9636 33.3056,309.5136 -5.8403,100.5633 -29.2727,196.787 -69.2936,284.55 -2.9415,6.4505 -10.5865,22.5545 -11.1554,23.4986 -0.181,0.3004 -10.6388,-4.7837 -42.7351,-20.7755 z m -106.0045,-98.4331 c -23.1,-11.525 -42.1314,-21.0064 -42.2921,-21.0697 -0.1607,-0.063 1.1435,-3.1425 2.8982,-6.8427 9.3349,-19.6855 15.8095,-35.8472 22.5858,-56.3776 31.3634,-95.0238 33.2693,-203.6024 5.5213,-314.55 -7.931,-31.7113 -19.2017,-65.746 -29.587,-89.3451 -1.0858,-2.4672 -1.8383,-4.5495 -1.6912,-4.6798 0.3017,-0.2674 84.4506,-40.7521 84.9854,-40.8871 0.9172,-0.2317 11.012,24.2137 17.4319,42.2129 22.996,64.4724 37.3711,133.599 41.8296,201.1491 1.0964,16.6115 1.2181,21.1069 1.2181,45 0,24.6459 -0.1352,29.2418 -1.3683,46.5 -4.9202,68.862 -20.6593,133.725 -47.1745,194.4126 -5.0391,11.5335 -11.7025,25.5135 -12.1349,25.4597 -0.1223,-0.015 -19.1223,-9.4573 -42.2223,-20.9823 z m -110.0527,-87.4416 c -23.2391,-11.6072 -42.3088,-21.16 -42.377,-21.2282 -0.068,-0.068 0.7696,-2.002 1.8619,-4.2972 20.6895,-43.4711 30.4776,-89.8971 29.7213,-140.973 -0.1767,-11.9328 -0.3678,-15.9437 -1.2654,-26.55 -2.9205,-34.5107 -10.8053,-70.9585 -22.3899,-103.5 -2.4121,-6.7755 -6.7136,-17.7418 -7.81,-19.9107 -0.3443,-0.6811 -0.476,-1.2714 -0.3188,-1.4286 0.3038,-0.3039 84.9228,-41.0607 85.2498,-41.0607 0.2358,0 0.3491,0.2497 4.151,9.15 7.1256,16.6808 14.3049,37.872 20.0224,59.1 16.2375,60.2857 21.2133,121.8826 14.5284,179.85 -5.1145,44.349 -17.603,87.8278 -36.4283,126.825 -1.374,2.8462 -2.5419,5.1643 -2.5954,5.1512 -0.053,-0.013 -19.111,-9.5206 -42.35,-21.1278 z"
       style="fill:#aa0000" />
  </g>
</svg>
